<?xml version="1.0" encoding="UTF-8" standalone="no" ?>
<!DOCTYPE svg PUBLIC "-//W3C//DTD SVG 1.1//EN" "http://www.w3.org/Graphics/SVG/1.1/DTD/svg11.dtd">
<svg xmlns="http://www.w3.org/2000/svg" xmlns:xlink="http://www.w3.org/1999/xlink" version="1.1" width="1000" height="1000" viewBox="0 0 1000 1000" xml:space="preserve">
<desc>Created with Fabric.js 5.2.4</desc>
<defs>
</defs>
<rect x="0" y="0" width="100%" height="100%" fill="transparent"></rect>
<g transform="matrix(1 0 0 1 500 500)" id="608bcf39-689d-46d3-831c-592222780388"  >
<rect style="stroke: none; stroke-width: 1; stroke-dasharray: none; stroke-linecap: butt; stroke-dashoffset: 0; stroke-linejoin: miter; stroke-miterlimit: 4; fill: rgb(255,255,255); fill-rule: nonzero; opacity: 1; visibility: hidden;" vector-effect="non-scaling-stroke"  x="-500" y="-500" rx="0" ry="0" width="1000" height="1000" />
</g>
<g transform="matrix(Infinity NaN NaN Infinity 0 0)" id="aba4d023-6a99-4c61-a1f0-38f2ffcbdf69"  >
</g>
<g transform="matrix(0.93 0 0 0.93 1422.55 1557.59)"  >
<g style="" vector-effect="non-scaling-stroke"   >
		<g transform="matrix(1 0 0 1 0 0)"  >
<path style="stroke: none; stroke-width: 1; stroke-dasharray: none; stroke-linecap: butt; stroke-dashoffset: 0; stroke-linejoin: miter; stroke-miterlimit: 4; fill: rgb(102,120,156); fill-rule: nonzero; opacity: 1;" vector-effect="non-scaling-stroke"  transform=" translate(-256, -256)" d="M 448 64 L 448 32 L 288 32 L 32 320 L 192 480 L 215.471 456.096 L 240 480 L 480 208 L 480 64 L 448 64 z M 192 457.371 L 54.39 320 L 294.621 48 L 432 48 L 432 185.377 L 215.445 433.367 L 204.105 444.73 L 192 457.371 z M 464 201.37699999999998 L 240 457.371 L 226.818 444.721 L 448 192 L 448 80 L 464 80 L 464 201.377 z" stroke-linecap="round" />
</g>
		<g transform="matrix(1 0 0 1 96 -128)"  >
<path style="stroke: none; stroke-width: 1; stroke-dasharray: none; stroke-linecap: butt; stroke-dashoffset: 0; stroke-linejoin: miter; stroke-miterlimit: 4; fill: rgb(102,120,156); fill-rule: nonzero; opacity: 1;" vector-effect="non-scaling-stroke"  transform=" translate(-352, -128)" d="M 352 160 C 369.645 160 384 145.645 384 128 C 384 110.35499999999999 369.645 96 352 96 C 334.355 96 320 110.355 320 128 C 320 145.64499999999998 334.355 160 352 160 z M 352 112 C 360.836 112 368 119.163 368 128 C 368 136.837 360.836 144 352 144 C 343.164 144 336 136.837 336 128 C 336 119.16300000000001 343.164 112 352 112 z" stroke-linecap="round" />
</g>
</g>
</g>
<g transform="matrix(0 0 0 0 1104.6 449.47)"  >
<g style=""   >
</g>
</g>
<g transform="matrix(0 0 0 0 1104.6 449.47)"  >
<g style=""   >
</g>
</g>
<g transform="matrix(0.07 0 0 0.07 502.02 492.49)"  >
<g style="" vector-effect="non-scaling-stroke"   >
		<g transform="matrix(1 0 0 1 0 0)"  >
<rect style="stroke: none; stroke-width: 1; stroke-dasharray: none; stroke-linecap: butt; stroke-dashoffset: 0; stroke-linejoin: miter; stroke-miterlimit: 4; fill: rgb(255,255,255); fill-rule: nonzero; opacity: 1; visibility: hidden;" vector-effect="non-scaling-stroke"  x="-600" y="-450" rx="0" ry="0" width="1200" height="900" />
</g>
		<g transform="matrix(0.83 0 0 0.83 -33.88 95.81)"  >
<path style="stroke: none; stroke-width: 1; stroke-dasharray: none; stroke-linecap: butt; stroke-dashoffset: 0; stroke-linejoin: miter; stroke-miterlimit: 4; fill: rgb(102,120,156); fill-rule: nonzero; opacity: 1;" vector-effect="non-scaling-stroke"  transform=" translate(-256, -256)" d="M 448 64 L 448 32 L 288 32 L 32 320 L 192 480 L 215.471 456.096 L 240 480 L 480 208 L 480 64 L 448 64 z M 192 457.371 L 54.39 320 L 294.621 48 L 432 48 L 432 185.377 L 215.445 433.367 L 204.105 444.73 L 192 457.371 z M 464 201.37699999999998 L 240 457.371 L 226.818 444.721 L 448 192 L 448 80 L 464 80 L 464 201.377 z" stroke-linecap="round" />
</g>
		<g transform="matrix(0.83 0 0 0.83 45.8 -10.43)"  >
<path style="stroke: none; stroke-width: 1; stroke-dasharray: none; stroke-linecap: butt; stroke-dashoffset: 0; stroke-linejoin: miter; stroke-miterlimit: 4; fill: rgb(102,120,156); fill-rule: nonzero; opacity: 1;" vector-effect="non-scaling-stroke"  transform=" translate(-352, -128)" d="M 352 160 C 369.645 160 384 145.645 384 128 C 384 110.35499999999999 369.645 96 352 96 C 334.355 96 320 110.355 320 128 C 320 145.64499999999998 334.355 160 352 160 z M 352 112 C 360.836 112 368 119.163 368 128 C 368 136.837 360.836 144 352 144 C 343.164 144 336 136.837 336 128 C 336 119.16300000000001 343.164 112 352 112 z" stroke-linecap="round" />
</g>
</g>
</g>
</svg>